<mxfile host="Electron" modified="2023-06-19T09:43:36.829Z" agent="Mozilla/5.0 (Windows NT 10.0; Win64; x64) AppleWebKit/537.36 (KHTML, like Gecko) draw.io/21.4.0 Chrome/112.0.5615.204 Electron/24.5.1 Safari/537.36" etag="8ujklM_WuaY1aXVd503B" version="21.4.0" type="device">
  <diagram name="第 1 页" id="KSUhmTteE460sUI7yHG8">
    <mxGraphModel dx="1098" dy="868" grid="1" gridSize="10" guides="1" tooltips="1" connect="1" arrows="1" fold="1" page="1" pageScale="1" pageWidth="827" pageHeight="1169" math="0" shadow="0">
      <root>
        <mxCell id="0" />
        <mxCell id="1" parent="0" />
        <mxCell id="aIYbs3pu3YeoRN2CY_q8-6" value="" style="edgeStyle=orthogonalEdgeStyle;rounded=0;orthogonalLoop=1;jettySize=auto;html=1;exitX=0;exitY=0.5;exitDx=0;exitDy=0;" edge="1" parent="1" source="aIYbs3pu3YeoRN2CY_q8-1" target="aIYbs3pu3YeoRN2CY_q8-5">
          <mxGeometry relative="1" as="geometry">
            <mxPoint x="230" y="50" as="sourcePoint" />
          </mxGeometry>
        </mxCell>
        <mxCell id="aIYbs3pu3YeoRN2CY_q8-8" value="" style="edgeStyle=orthogonalEdgeStyle;rounded=0;orthogonalLoop=1;jettySize=auto;html=1;" edge="1" parent="1" source="aIYbs3pu3YeoRN2CY_q8-1" target="aIYbs3pu3YeoRN2CY_q8-7">
          <mxGeometry relative="1" as="geometry" />
        </mxCell>
        <mxCell id="aIYbs3pu3YeoRN2CY_q8-1" value="判断是不是塞音" style="rounded=0;whiteSpace=wrap;html=1;" vertex="1" parent="1">
          <mxGeometry x="354" y="20" width="120" height="60" as="geometry" />
        </mxCell>
        <mxCell id="aIYbs3pu3YeoRN2CY_q8-5" value="塞音" style="whiteSpace=wrap;html=1;rounded=0;" vertex="1" parent="1">
          <mxGeometry y="150" width="120" height="60" as="geometry" />
        </mxCell>
        <mxCell id="aIYbs3pu3YeoRN2CY_q8-15" value="" style="edgeStyle=orthogonalEdgeStyle;rounded=0;orthogonalLoop=1;jettySize=auto;html=1;" edge="1" parent="1" source="aIYbs3pu3YeoRN2CY_q8-7" target="aIYbs3pu3YeoRN2CY_q8-14">
          <mxGeometry relative="1" as="geometry" />
        </mxCell>
        <mxCell id="aIYbs3pu3YeoRN2CY_q8-17" value="" style="edgeStyle=orthogonalEdgeStyle;rounded=0;orthogonalLoop=1;jettySize=auto;html=1;" edge="1" parent="1" source="aIYbs3pu3YeoRN2CY_q8-7" target="aIYbs3pu3YeoRN2CY_q8-16">
          <mxGeometry relative="1" as="geometry" />
        </mxCell>
        <mxCell id="aIYbs3pu3YeoRN2CY_q8-7" value="判断是不是颤音&lt;br&gt;(包括闪音)" style="whiteSpace=wrap;html=1;rounded=0;" vertex="1" parent="1">
          <mxGeometry x="707" y="150" width="120" height="60" as="geometry" />
        </mxCell>
        <mxCell id="aIYbs3pu3YeoRN2CY_q8-12" value="有塞音按钮按下" style="text;strokeColor=none;fillColor=none;align=left;verticalAlign=middle;spacingLeft=4;spacingRight=4;overflow=hidden;points=[[0,0.5],[1,0.5]];portConstraint=eastwest;rotatable=0;whiteSpace=wrap;html=1;" vertex="1" parent="1">
          <mxGeometry x="70" y="50" width="110" height="30" as="geometry" />
        </mxCell>
        <mxCell id="aIYbs3pu3YeoRN2CY_q8-13" value="无塞音按钮按下" style="text;strokeColor=none;fillColor=none;align=left;verticalAlign=middle;spacingLeft=4;spacingRight=4;overflow=hidden;points=[[0,0.5],[1,0.5]];portConstraint=eastwest;rotatable=0;whiteSpace=wrap;html=1;" vertex="1" parent="1">
          <mxGeometry x="650" y="50" width="110" height="30" as="geometry" />
        </mxCell>
        <mxCell id="aIYbs3pu3YeoRN2CY_q8-14" value="颤音" style="whiteSpace=wrap;html=1;rounded=0;" vertex="1" parent="1">
          <mxGeometry x="354" y="290" width="120" height="60" as="geometry" />
        </mxCell>
        <mxCell id="aIYbs3pu3YeoRN2CY_q8-16" value="判断是不是擦音或边擦音" style="whiteSpace=wrap;html=1;rounded=0;" vertex="1" parent="1">
          <mxGeometry x="1040" y="290" width="160" height="60" as="geometry" />
        </mxCell>
        <mxCell id="aIYbs3pu3YeoRN2CY_q8-18" value="有颤音按钮按下" style="text;strokeColor=none;fillColor=none;align=left;verticalAlign=middle;spacingLeft=4;spacingRight=4;overflow=hidden;points=[[0,0.5],[1,0.5]];portConstraint=eastwest;rotatable=0;whiteSpace=wrap;html=1;" vertex="1" parent="1">
          <mxGeometry x="422" y="190" width="110" height="30" as="geometry" />
        </mxCell>
        <mxCell id="aIYbs3pu3YeoRN2CY_q8-19" value="无颤音按钮按下" style="text;strokeColor=none;fillColor=none;align=left;verticalAlign=middle;spacingLeft=4;spacingRight=4;overflow=hidden;points=[[0,0.5],[1,0.5]];portConstraint=eastwest;rotatable=0;whiteSpace=wrap;html=1;" vertex="1" parent="1">
          <mxGeometry x="1002" y="190" width="110" height="30" as="geometry" />
        </mxCell>
        <mxCell id="aIYbs3pu3YeoRN2CY_q8-21" value="" style="edgeStyle=orthogonalEdgeStyle;rounded=0;orthogonalLoop=1;jettySize=auto;html=1;" edge="1" parent="1" target="aIYbs3pu3YeoRN2CY_q8-22">
          <mxGeometry relative="1" as="geometry">
            <mxPoint x="1040" y="320" as="sourcePoint" />
          </mxGeometry>
        </mxCell>
        <mxCell id="aIYbs3pu3YeoRN2CY_q8-22" value="擦音或边擦音" style="whiteSpace=wrap;html=1;rounded=0;" vertex="1" parent="1">
          <mxGeometry x="687" y="430" width="120" height="60" as="geometry" />
        </mxCell>
        <mxCell id="aIYbs3pu3YeoRN2CY_q8-23" value="有擦音按钮按下或有边擦音按钮按下" style="text;strokeColor=none;fillColor=none;align=left;verticalAlign=middle;spacingLeft=4;spacingRight=4;overflow=hidden;points=[[0,0.5],[1,0.5]];portConstraint=eastwest;rotatable=0;whiteSpace=wrap;html=1;" vertex="1" parent="1">
          <mxGeometry x="760" y="330" width="210" height="30" as="geometry" />
        </mxCell>
        <mxCell id="aIYbs3pu3YeoRN2CY_q8-24" value="" style="edgeStyle=orthogonalEdgeStyle;rounded=0;orthogonalLoop=1;jettySize=auto;html=1;entryX=0.5;entryY=0;entryDx=0;entryDy=0;" edge="1" parent="1" target="aIYbs3pu3YeoRN2CY_q8-27">
          <mxGeometry relative="1" as="geometry">
            <mxPoint x="1200" y="320" as="sourcePoint" />
            <mxPoint x="1493" y="430" as="targetPoint" />
          </mxGeometry>
        </mxCell>
        <mxCell id="aIYbs3pu3YeoRN2CY_q8-25" value="无擦音按钮按下且无边擦音按钮按下" style="text;strokeColor=none;fillColor=none;align=left;verticalAlign=middle;spacingLeft=4;spacingRight=4;overflow=hidden;points=[[0,0.5],[1,0.5]];portConstraint=eastwest;rotatable=0;whiteSpace=wrap;html=1;" vertex="1" parent="1">
          <mxGeometry x="1270" y="330" width="215" height="30" as="geometry" />
        </mxCell>
        <mxCell id="aIYbs3pu3YeoRN2CY_q8-27" value="判断是不是近音或边近音" style="whiteSpace=wrap;html=1;rounded=0;" vertex="1" parent="1">
          <mxGeometry x="1400" y="430" width="160" height="60" as="geometry" />
        </mxCell>
        <mxCell id="aIYbs3pu3YeoRN2CY_q8-50" style="edgeStyle=orthogonalEdgeStyle;rounded=0;orthogonalLoop=1;jettySize=auto;html=1;exitX=0.5;exitY=1;exitDx=0;exitDy=0;entryX=0.5;entryY=0;entryDx=0;entryDy=0;" edge="1" parent="1" source="aIYbs3pu3YeoRN2CY_q8-35" target="aIYbs3pu3YeoRN2CY_q8-44">
          <mxGeometry relative="1" as="geometry" />
        </mxCell>
        <mxCell id="aIYbs3pu3YeoRN2CY_q8-35" value="元音" style="whiteSpace=wrap;html=1;rounded=0;" vertex="1" parent="1">
          <mxGeometry x="1756.5" y="570" width="160" height="60" as="geometry" />
        </mxCell>
        <mxCell id="aIYbs3pu3YeoRN2CY_q8-36" value="近音或边近音" style="whiteSpace=wrap;html=1;rounded=0;" vertex="1" parent="1">
          <mxGeometry x="1043.5" y="570" width="120" height="60" as="geometry" />
        </mxCell>
        <mxCell id="aIYbs3pu3YeoRN2CY_q8-37" value="" style="edgeStyle=orthogonalEdgeStyle;rounded=0;orthogonalLoop=1;jettySize=auto;html=1;" edge="1" parent="1" target="aIYbs3pu3YeoRN2CY_q8-36" source="aIYbs3pu3YeoRN2CY_q8-27">
          <mxGeometry relative="1" as="geometry">
            <mxPoint x="1397" y="460" as="sourcePoint" />
          </mxGeometry>
        </mxCell>
        <mxCell id="aIYbs3pu3YeoRN2CY_q8-38" value="有近音按钮按下或有边近音按钮按下" style="text;strokeColor=none;fillColor=none;align=left;verticalAlign=middle;spacingLeft=4;spacingRight=4;overflow=hidden;points=[[0,0.5],[1,0.5]];portConstraint=eastwest;rotatable=0;whiteSpace=wrap;html=1;" vertex="1" parent="1">
          <mxGeometry x="1116.5" y="470" width="210" height="30" as="geometry" />
        </mxCell>
        <mxCell id="aIYbs3pu3YeoRN2CY_q8-39" value="" style="edgeStyle=orthogonalEdgeStyle;rounded=0;orthogonalLoop=1;jettySize=auto;html=1;entryX=0.5;entryY=0;entryDx=0;entryDy=0;exitX=1;exitY=0.5;exitDx=0;exitDy=0;" edge="1" parent="1" source="aIYbs3pu3YeoRN2CY_q8-27">
          <mxGeometry relative="1" as="geometry">
            <mxPoint x="1556.5" y="460" as="sourcePoint" />
            <mxPoint x="1836.5" y="570" as="targetPoint" />
          </mxGeometry>
        </mxCell>
        <mxCell id="aIYbs3pu3YeoRN2CY_q8-40" value="无近音按钮按下且无边近音按钮按下" style="text;strokeColor=none;fillColor=none;align=left;verticalAlign=middle;spacingLeft=4;spacingRight=4;overflow=hidden;points=[[0,0.5],[1,0.5]];portConstraint=eastwest;rotatable=0;whiteSpace=wrap;html=1;" vertex="1" parent="1">
          <mxGeometry x="1626.5" y="470" width="215" height="30" as="geometry" />
        </mxCell>
        <mxCell id="aIYbs3pu3YeoRN2CY_q8-47" value="" style="edgeStyle=orthogonalEdgeStyle;rounded=0;orthogonalLoop=1;jettySize=auto;html=1;" edge="1" parent="1" source="aIYbs3pu3YeoRN2CY_q8-44" target="aIYbs3pu3YeoRN2CY_q8-46">
          <mxGeometry relative="1" as="geometry" />
        </mxCell>
        <mxCell id="aIYbs3pu3YeoRN2CY_q8-44" value="&amp;lt;&amp;lt;元音符号" style="whiteSpace=wrap;html=1;rounded=0;" vertex="1" parent="1">
          <mxGeometry x="1776" y="700" width="120" height="60" as="geometry" />
        </mxCell>
        <mxCell id="aIYbs3pu3YeoRN2CY_q8-49" value="" style="edgeStyle=orthogonalEdgeStyle;rounded=0;orthogonalLoop=1;jettySize=auto;html=1;" edge="1" parent="1" source="aIYbs3pu3YeoRN2CY_q8-46" target="aIYbs3pu3YeoRN2CY_q8-48">
          <mxGeometry relative="1" as="geometry" />
        </mxCell>
        <mxCell id="aIYbs3pu3YeoRN2CY_q8-46" value="&amp;lt;&amp;lt;鼻化、清化、气声、不成音节符号" style="whiteSpace=wrap;html=1;rounded=0;" vertex="1" parent="1">
          <mxGeometry x="1731" y="840" width="210" height="60" as="geometry" />
        </mxCell>
        <mxCell id="aIYbs3pu3YeoRN2CY_q8-54" value="" style="edgeStyle=orthogonalEdgeStyle;rounded=0;orthogonalLoop=1;jettySize=auto;html=1;" edge="1" parent="1" source="aIYbs3pu3YeoRN2CY_q8-48" target="aIYbs3pu3YeoRN2CY_q8-53">
          <mxGeometry relative="1" as="geometry" />
        </mxCell>
        <mxCell id="aIYbs3pu3YeoRN2CY_q8-48" value="&amp;lt;&amp;lt;儿化符号或其他舌尖协同调音符号" style="whiteSpace=wrap;html=1;rounded=0;" vertex="1" parent="1">
          <mxGeometry x="1711.5" y="980" width="250" height="60" as="geometry" />
        </mxCell>
        <mxCell id="aIYbs3pu3YeoRN2CY_q8-56" value="" style="edgeStyle=orthogonalEdgeStyle;rounded=0;orthogonalLoop=1;jettySize=auto;html=1;" edge="1" parent="1" source="aIYbs3pu3YeoRN2CY_q8-53" target="aIYbs3pu3YeoRN2CY_q8-55">
          <mxGeometry relative="1" as="geometry" />
        </mxCell>
        <mxCell id="aIYbs3pu3YeoRN2CY_q8-53" value="&amp;lt;&amp;lt;其他协同调音角标" style="whiteSpace=wrap;html=1;rounded=0;" vertex="1" parent="1">
          <mxGeometry x="1751.5" y="1120" width="170" height="60" as="geometry" />
        </mxCell>
        <mxCell id="aIYbs3pu3YeoRN2CY_q8-55" value="完成" style="ellipse;whiteSpace=wrap;html=1;rounded=0;" vertex="1" parent="1">
          <mxGeometry x="1796.5" y="1250" width="80" height="80" as="geometry" />
        </mxCell>
        <mxCell id="aIYbs3pu3YeoRN2CY_q8-57" style="edgeStyle=orthogonalEdgeStyle;rounded=0;orthogonalLoop=1;jettySize=auto;html=1;exitX=0.5;exitY=1;exitDx=0;exitDy=0;entryX=0.5;entryY=0;entryDx=0;entryDy=0;" edge="1" parent="1" target="aIYbs3pu3YeoRN2CY_q8-58" source="aIYbs3pu3YeoRN2CY_q8-36">
          <mxGeometry relative="1" as="geometry">
            <mxPoint x="1104.5" y="630" as="sourcePoint" />
          </mxGeometry>
        </mxCell>
        <mxCell id="aIYbs3pu3YeoRN2CY_q8-58" value="&amp;lt;&amp;lt;近音或边近音符号" style="whiteSpace=wrap;html=1;rounded=0;" vertex="1" parent="1">
          <mxGeometry x="1018.5" y="700" width="170" height="60" as="geometry" />
        </mxCell>
        <mxCell id="aIYbs3pu3YeoRN2CY_q8-60" value="读取:舌根、圆唇" style="text;html=1;strokeColor=none;fillColor=none;align=left;verticalAlign=middle;whiteSpace=wrap;rounded=0;" vertex="1" parent="1">
          <mxGeometry x="1850" y="650" width="110" height="30" as="geometry" />
        </mxCell>
        <mxCell id="aIYbs3pu3YeoRN2CY_q8-61" value="读取:鼻、声带、声门、成音节" style="text;html=1;strokeColor=none;fillColor=none;align=left;verticalAlign=middle;whiteSpace=wrap;rounded=0;" vertex="1" parent="1">
          <mxGeometry x="1850" y="790" width="170" height="30" as="geometry" />
        </mxCell>
        <mxCell id="aIYbs3pu3YeoRN2CY_q8-62" value="读取:舌尖" style="text;html=1;strokeColor=none;fillColor=none;align=left;verticalAlign=middle;whiteSpace=wrap;rounded=0;" vertex="1" parent="1">
          <mxGeometry x="1850" y="930" width="60" height="30" as="geometry" />
        </mxCell>
        <mxCell id="aIYbs3pu3YeoRN2CY_q8-63" value="读取:双唇、唇齿、硬腭、腭央、软腭、小舌" style="text;html=1;strokeColor=none;fillColor=none;align=left;verticalAlign=middle;whiteSpace=wrap;rounded=0;" vertex="1" parent="1">
          <mxGeometry x="1850" y="1060" width="240" height="30" as="geometry" />
        </mxCell>
        <mxCell id="aIYbs3pu3YeoRN2CY_q8-64" value="读取:双唇、唇齿、舌尖、硬腭、腭央、软腭、小舌、舌根、成音节" style="text;html=1;strokeColor=none;fillColor=none;align=left;verticalAlign=middle;whiteSpace=wrap;rounded=0;" vertex="1" parent="1">
          <mxGeometry x="1117" y="650" width="363" height="30" as="geometry" />
        </mxCell>
      </root>
    </mxGraphModel>
  </diagram>
</mxfile>
